<svg xmlns="http://www.w3.org/2000/svg" viewBox="0 0 320.12 53.96"><defs><style>.cls-1{fill:#1d1d1b;}</style></defs><title>BLM_museumx_LOGO_hackathon_schwarz</title><g id="Ebene_2" data-name="Ebene 2"><g id="Ebene_1-2" data-name="Ebene 1"><path class="cls-1" d="M310.93,14.56a2.33,2.33,0,0,1-1.7-.59,4.7,4.7,0,0,0-2.54-.85c-2,0-6.44,5.42-10.26,11.7.93,3.89,2.38,9.49,3.31,12.62,1.1,3.82,2,5.85,3.39,5.85,2.12,0,4.24-2.79,6.44-7.46l2.21,1.28C309.32,42.87,305.59,48,299.91,48c-3.48,0-5.09-2.12-6.53-7.63q-1-4.06-2-7.88h-.17c-5,8.14-8.48,15.51-14.67,15.51-3.22,0-5.08-1.78-5.08-4.07,0-1.78,1.86-4.41,3.64-4.41a2.74,2.74,0,0,1,1.53.51,6.7,6.7,0,0,0,3.3,1.7c3,0,7.89-8.14,10.6-13.06l-3.65-13.39c-.76-2.71-1.44-2.88-3.13-2.71l-5.85.34L277.7,11l13.82-4,.5.34,3.56,14.07h.17c6.45-10.17,10.43-14.49,15.09-14.49,2.21,0,3.73,1.19,3.73,3.14,0,2.12-2.54,4.49-3.64,4.49M312.83,0H273.44a7.28,7.28,0,0,0-7.28,7.29V46.67A7.28,7.28,0,0,0,273.44,54h39.39a7.29,7.29,0,0,0,7.29-7.29V7.29A7.29,7.29,0,0,0,312.83,0"/><path class="cls-1" d="M250.65,42.77c0,1.31.16,2.13.59,2.45a7.19,7.19,0,0,0,3.37.72v1.54H241.73V45.94a7.42,7.42,0,0,0,3.44-.72c.39-.32.57-1.14.54-2.45V29.88q-.06-6.89-5.56-6.83a7,7,0,0,0-3.72,1.15A7.51,7.51,0,0,0,233.85,27a6.35,6.35,0,0,0-.52,3V42.77c0,1.31.15,2.13.57,2.45a7.32,7.32,0,0,0,3.38.72v1.54H224.45V45.94a7.46,7.46,0,0,0,3.42-.72c.38-.32.55-1.14.51-2.45V25.56a3.86,3.86,0,0,0-.3-1.92,2.16,2.16,0,0,0-1.37-.54l-2-.29V21.47l7.83-1.34.75,4.12a41.66,41.66,0,0,1,4.59-2.88,10.67,10.67,0,0,1,5-1.24q7.67.11,7.77,8.66ZM201,34.12q0,5.67,1.81,8.84a5.7,5.7,0,0,0,5.34,3.27,5.9,5.9,0,0,0,5.5-3.27c1.12-2.11,1.67-5.06,1.67-8.84q.06-11.86-7.17-12.08a5.84,5.84,0,0,0-5.34,3.19c-1.21,2.11-1.81,5.08-1.81,8.89m7.15-14q12.71.21,12.65,14t-12.65,14q-12.63-.24-12.62-14t12.62-14M188.68,42.77a3.21,3.21,0,0,0,.62,2.45,3.92,3.92,0,0,0,1.21.43l2.12.29v1.54H179.78V45.94a7.41,7.41,0,0,0,3.39-.72,3.42,3.42,0,0,0,.57-2.45V29.88q-.06-6.89-5.56-6.83a6.94,6.94,0,0,0-3.75,1.15A8,8,0,0,0,171.82,27a6.4,6.4,0,0,0-.46,3V42.77a3.13,3.13,0,0,0,.64,2.45,3.63,3.63,0,0,0,1.22.43l2.12.29v1.54H162.52V45.94a7.19,7.19,0,0,0,3.35-.72,2.86,2.86,0,0,0,.54-2.45V12.49a3.52,3.52,0,0,0-.33-1.89,1.94,1.94,0,0,0-1.36-.56l-2-.26V8.42L171,7l.36.35V24.25A41.21,41.21,0,0,1,176,21.32a10,10,0,0,1,4.92-1.19q7.71.11,7.81,8.66ZM151.56,23v16.9c0,2,.36,3.46,1.1,4.26a2.85,2.85,0,0,0,2.4,1.2,9,9,0,0,0,3.73-.72l.41,1.14a13.18,13.18,0,0,1-2.88,1.53,9.79,9.79,0,0,1-3.86.87,7.34,7.34,0,0,1-1.63-.24,6.88,6.88,0,0,1-2-.8,4.86,4.86,0,0,1-1.57-1.91,6.66,6.66,0,0,1-.7-3.27V23h-3.8V20.79h4L150,13.93h1.52v6.86h6.82V23ZM136.67,40.59a7.27,7.27,0,0,0,.62,3.49c.33.73.73,1.13,1.22,1.2a6.34,6.34,0,0,0,2.71-.06l.31,1.29a14.4,14.4,0,0,1-6.22,1.64,2.58,2.58,0,0,1-2.09-.93,7,7,0,0,1-1.33-2.32c-.85.57-1.94,1.21-3.28,1.93a11.7,11.7,0,0,1-4.6,1.32,7,7,0,0,1-5.66-2.42,7.8,7.8,0,0,1-2-5.33,7.15,7.15,0,0,1,1.06-3.78,6.77,6.77,0,0,1,3.87-2.71l6.46-2.13a11.77,11.77,0,0,0,4.16-2V27.47c0-2.13-.51-3.58-1.42-4.34A5,5,0,0,0,127.44,22a4.88,4.88,0,0,0-3,1.15A8.18,8.18,0,0,0,122,27.37a3,3,0,0,1-.46,1.09,1.47,1.47,0,0,1-1.21.45,3.39,3.39,0,0,1-1.8-.66,2.21,2.21,0,0,1-1.16-1.92c0-1.6,1.09-3,3.17-4.29a16.39,16.39,0,0,1,12.29-1.25,5.7,5.7,0,0,1,2.55,1.73,6.68,6.68,0,0,1,1.15,2.35,19,19,0,0,1,.16,2.5ZM131.94,32a13.07,13.07,0,0,1-2.64,1.27c-1.18.43-2.32.88-3.44,1.36q-4.26,1.43-4.15,5a6.28,6.28,0,0,0,1.22,4,4.31,4.31,0,0,0,3.68,1.63,5.74,5.74,0,0,0,1.78-.32,4.3,4.3,0,0,0,1.71-.88,6.79,6.79,0,0,0,1.37-1.68,6.62,6.62,0,0,0,.47-2.69ZM90.12,12.47a3.85,3.85,0,0,0-.34-2A1.79,1.79,0,0,0,88.43,10l-2-.21V8.39L94.7,7l.36.35V32.9h.1q3.77-5.23,8-10.57a4.12,4.12,0,0,1,1.45-1.28,5.19,5.19,0,0,1,1.88-.26h5.44v1.49a12.18,12.18,0,0,0-3.53.77,9.63,9.63,0,0,0-2.63,1.58,37.66,37.66,0,0,0-6,5.94,1.13,1.13,0,0,0-.36.67,2.81,2.81,0,0,0,.21.59A99.26,99.26,0,0,0,109,43.3a10,10,0,0,0,4.54,3v1.49l-4-.16a7.17,7.17,0,0,1-2.68-.72,10.71,10.71,0,0,1-3-2,83.49,83.49,0,0,1-8.67-11.18h-.1v9.13c0,1.31.16,2.13.59,2.45a7.24,7.24,0,0,0,3.38.72v1.54H86.17V45.94a7.4,7.4,0,0,0,3.41-.72c.39-.32.57-1.14.54-2.45ZM74.58,45.33a7,7,0,0,0,4.67-1.47,10.72,10.72,0,0,0,2.94-4.31l1.55.77a9.59,9.59,0,0,1-4.23,6,11.48,11.48,0,0,1-5.93,1.81q-12.12-.06-12.22-13.73a16.69,16.69,0,0,1,2.86-9.93q2.91-4.26,10-4.36a12.57,12.57,0,0,1,6.75,1.62q2.41,1.65,2.42,3.68a2.29,2.29,0,0,1-1.11,2.1,4,4,0,0,1-2,.66,1.29,1.29,0,0,1-1-.42,2.18,2.18,0,0,1-.59-1q-1.47-4.63-5-4.74a5.64,5.64,0,0,0-4.69,2.61q-2,2.72-2.06,8.79a19.42,19.42,0,0,0,1.54,7.87,7.09,7.09,0,0,0,2.42,2.82,5.9,5.9,0,0,0,3.78,1.2M54.07,40.59a7.15,7.15,0,0,0,.62,3.49c.32.73.73,1.13,1.21,1.2a6.38,6.38,0,0,0,2.72-.06l.31,1.29a14.44,14.44,0,0,1-6.23,1.64,2.56,2.56,0,0,1-2.08-.93,7,7,0,0,1-1.34-2.32A37,37,0,0,1,46,46.83a11.61,11.61,0,0,1-4.59,1.32,7,7,0,0,1-5.66-2.42,7.75,7.75,0,0,1-2-5.33,7.15,7.15,0,0,1,1.06-3.78,6.7,6.7,0,0,1,3.87-2.71l6.46-2.13a11.71,11.71,0,0,0,4.15-2V27.47c0-2.13-.51-3.58-1.42-4.34A4.94,4.94,0,0,0,44.83,22a4.88,4.88,0,0,0-3,1.15,8.24,8.24,0,0,0-2.4,4.18,3,3,0,0,1-.47,1.09,1.45,1.45,0,0,1-1.2.45,3.33,3.33,0,0,1-1.8-.66,2.19,2.19,0,0,1-1.16-1.92q0-2.4,3.17-4.29a14.11,14.11,0,0,1,7.49-1.91,14.1,14.1,0,0,1,4.79.66,5.59,5.59,0,0,1,2.55,1.73,6.71,6.71,0,0,1,1.16,2.35,20.85,20.85,0,0,1,.16,2.5ZM49.33,32a12.55,12.55,0,0,1-2.64,1.27c-1.17.43-2.32.88-3.44,1.36q-4.24,1.43-4.14,5a6.28,6.28,0,0,0,1.22,4A4.3,4.3,0,0,0,44,45.28,5.79,5.79,0,0,0,45.79,45a4.37,4.37,0,0,0,1.71-.88,7,7,0,0,0,1.37-1.68,6.64,6.64,0,0,0,.46-2.69ZM26.16,42.77a3.21,3.21,0,0,0,.62,2.45,3.89,3.89,0,0,0,1.22.43l2.11.29v1.54H17.26V45.94a7.37,7.37,0,0,0,3.39-.72,3.42,3.42,0,0,0,.57-2.45V29.88q-.06-6.89-5.56-6.83a6.94,6.94,0,0,0-3.75,1.15A8,8,0,0,0,9.3,27a6.4,6.4,0,0,0-.46,3V42.77a3.08,3.08,0,0,0,.65,2.45,3.48,3.48,0,0,0,1.21.43l2.12.29v1.54H0V45.94a7.25,7.25,0,0,0,3.36-.72,2.9,2.9,0,0,0,.53-2.45V12.49a3.52,3.52,0,0,0-.33-1.89A1.94,1.94,0,0,0,2.2,10l-2-.26V8.42L8.43,7l.36.35V24.25a41.21,41.21,0,0,1,4.64-2.93,10,10,0,0,1,4.92-1.19q7.71.11,7.81,8.66Z"/></g></g></svg>