<svg xmlns="http://www.w3.org/2000/svg" viewBox="0 0 55.98 53.34"><defs><style>.cls-1{fill:#e30613;}</style></defs><title>BLM Museumx - X</title><g id="Ebene_2" data-name="Ebene 2"><g id="Ebene_1-2" data-name="Ebene 1"><path class="cls-1" d="M8.14,5.28,26.07.11l.66.44,4.62,18.26h.22C39.93,5.61,45.09,0,51.14,0,54,0,56,1.54,56,4.07c0,2.75-3.3,5.83-4.73,5.83a3,3,0,0,1-2.2-.77A6.17,6.17,0,0,0,45.75,8c-2.64,0-8.35,7-13.31,15.18,1.22,5.06,3.09,12.31,4.3,16.38,1.43,4.95,2.63,7.59,4.39,7.59,2.75,0,5.5-3.63,8.36-9.68l2.86,1.65c-3.19,7.48-8,14.19-15.39,14.19-4.52,0-6.6-2.75-8.47-9.9q-1.32-5.28-2.64-10.23h-.22c-6.49,10.56-11,20.13-19,20.13C2.42,53.34,0,51,0,48.06c0-2.31,2.42-5.72,4.73-5.72a3.55,3.55,0,0,1,2,.66C8.25,44.21,9.9,45.2,11,45.2c3.85,0,10.23-10.56,13.75-16.93L20,10.89C19,7.37,18.15,7.15,16,7.37l-7.59.44Z"/></g></g></svg>