<?xml version="1.0" encoding="UTF-8" standalone="no"?>
<svg
   xmlns:dc="http://purl.org/dc/elements/1.1/"
   xmlns:cc="http://creativecommons.org/ns#"
   xmlns:rdf="http://www.w3.org/1999/02/22-rdf-syntax-ns#"
   xmlns:svg="http://www.w3.org/2000/svg"
   xmlns="http://www.w3.org/2000/svg"
   xmlns:sodipodi="http://sodipodi.sourceforge.net/DTD/sodipodi-0.dtd"
   xmlns:inkscape="http://www.inkscape.org/namespaces/inkscape"
   viewBox="0 0 327.79999 128.89333"
   height="128.89333"
   width="327.79999"
   xml:space="preserve"
   id="svg2"
   version="1.1"
   inkscape:version="0.91 r13725"
   sodipodi:docname="blm_museumx_v2.svg"><sodipodi:namedview
     pagecolor="#ffffff"
     bordercolor="#666666"
     borderopacity="1"
     objecttolerance="10"
     gridtolerance="10"
     guidetolerance="10"
     inkscape:pageopacity="0"
     inkscape:pageshadow="2"
     inkscape:window-width="1900"
     inkscape:window-height="1030"
     id="namedview3448"
     showgrid="false"
     inkscape:zoom="5.2928617"
     inkscape:cx="163.89999"
     inkscape:cy="64.446663"
     inkscape:window-x="10"
     inkscape:window-y="40"
     inkscape:window-maximized="0"
     inkscape:current-layer="svg2" /><metadata
     id="metadata8"><rdf:RDF><cc:Work
         rdf:about=""><dc:format>image/svg+xml</dc:format><dc:type
           rdf:resource="http://purl.org/dc/dcmitype/StillImage" /><dc:title></dc:title></cc:Work></rdf:RDF></metadata><defs
     id="defs6" /><g
     transform="matrix(1.3333333,0,0,-1.3333333,0,128.89333)"
     id="g10"><g
       transform="scale(0.1)"
       id="g12"><path
         id="path14"
         style="fill:#231f20;fill-opacity:1;fill-rule:nonzero;stroke:none"
         d="m 137.281,3.92578 h 31.875 V 83.1445 H 137.281 V 3.92578" /><path
         id="path16"
         style="fill:#231f20;fill-opacity:1;fill-rule:nonzero;stroke:none"
         d="M 0,153.633 V 3.92578 H 30.0195 V 132.305 L 69.9805,3.92578 H 96.4883 L 121.656,83.1445 H 96.1289 L 84.0781,44.7266 52.3789,153.633 H 0" /><path
         id="path18"
         style="fill:#231f20;fill-opacity:1;fill-rule:nonzero;stroke:none"
         d="m 263.375,55.7031 c 0,-17.8125 0,-32.5195 -19.668,-32.5195 -16.359,0 -16.359,13.8867 -16.359,22.9883 V 83.1445 H 196.305 V 43.4766 c 0,-5.1758 0,-19.668 6.816,-28.1446 5.801,-7.67575 17.402,-14.082 31.484,-14.082 19.872,0 27.735,11.9922 30.84,16.5625 l 1.043,-13.86719 h 29.817 c -0.41,2.89063 -0.625,4.7461 -0.84,7.65629 0,2.6757 -0.195,5.3711 -0.625,27.9492 V 83.1445 H 263.375 V 55.7031" /><path
         id="path20"
         style="fill:#231f20;fill-opacity:1;fill-rule:nonzero;stroke:none"
         d="m 318.773,78.2617 c 0,-21.3281 18.02,-26.4844 26.497,-28.9844 l 19.062,-5.1757 c 12.012,-3.3203 14.481,-7.0313 14.481,-11.7969 0,-6.2109 -5.165,-12.4219 -16.141,-12.4219 -12.832,0 -16.973,7.6563 -17.402,14.2774 H 316.5 c 0.203,-4.961 0.82,-13.2422 7.656,-20.5079 9.512,-9.92183 22.364,-12.812456 35.821,-12.812456 32.5,0 48.046,18.007856 48.046,36.015656 0,14.2773 -8.906,24.0234 -27.96,29.1992 l -18.836,5.1758 c -9.114,2.4804 -14.297,3.9258 -14.297,10.9765 0,0.3321 0.078,0.625 0.117,0.9375 h -27.852 c -0.254,-1.582 -0.422,-3.1836 -0.422,-4.8828" /><path
         id="path22"
         style="fill:#231f20;fill-opacity:1;fill-rule:nonzero;stroke:none"
         d="m 491.734,67.7148 h -37.902 c 0.285,5.7422 1.731,11.211 4.531,15.4297 H 428.91 c -4.129,-9.5117 -5.508,-19.9023 -5.508,-29.2968 0,-16.7969 3.938,-30.8594 13.45,-40.8008 C 447.828,1.66016 464.82,0 473.707,0 c 15.332,0 29.004,4.14063 36.66,12.2266 8.485,8.8867 9.512,17.7929 9.942,22.7734 h -27.95 c -2.91,-11.6016 -10.578,-14.4922 -18.222,-14.4922 -21.348,0 -21.348,21.1133 -21.348,27.9492 h 70.203 c 0.391,7.9688 0.696,21.4844 -4.668,34.6875 h -30.027 c 3.301,-5.6836 3.437,-12.7539 3.437,-15.4297" /><path
         id="path24"
         style="fill:#231f20;fill-opacity:1;fill-rule:nonzero;stroke:none"
         d="m 610.297,55.7031 c 0,-17.8125 0,-32.5195 -19.668,-32.5195 -16.375,0 -16.375,13.8867 -16.375,22.9883 V 83.1445 H 543.207 V 43.4766 c 0,-5.1758 0,-19.668 6.848,-28.1446 5.781,-7.67575 17.383,-14.082 31.465,-14.082 19.882,0 27.734,11.9922 30.847,16.5625 l 1.047,-13.86719 h 29.805 c -0.41,2.89063 -0.625,4.7461 -0.832,7.65629 0,2.6757 -0.203,5.3711 -0.606,27.9492 V 83.1445 H 610.297 V 55.7031" /><path
         id="path26"
         style="fill:#231f20;fill-opacity:1;fill-rule:nonzero;stroke:none"
         d="m 670.25,3.92578 h 30.84 V 65.4297 c 0,4.3164 0.008,12.2461 4.5,17.7148 H 670.25 V 3.92578" /><path
         id="path28"
         style="fill:#231f20;fill-opacity:1;fill-rule:nonzero;stroke:none"
         d="M 804.84,65.4297 V 3.94531 h 30.859 V 62.9492 c 0,5.8985 0.137,13.2617 -1.269,20.1953 h -33.653 c 3.418,-4.6484 4.063,-11.3476 4.063,-17.7148" /><path
         id="path30"
         style="fill:#231f20;fill-opacity:1;fill-rule:nonzero;stroke:none"
         d="M 737.535,66.0547 V 3.92578 h 30.86 V 56.3281 c 0,9.9024 0.214,20.4688 5.156,26.8164 h -39.824 c 3.66,-5.0586 3.808,-12.2851 3.808,-17.0898" /><path
         id="path32"
         style="fill:#231f20;fill-opacity:1;fill-rule:nonzero;stroke:none"
         d="M 0.203125,785.801 V 636.309 H 93.4727 v 25.449 H 32.9141 V 785.801 H 0.203125" /><path
         id="path34"
         style="fill:#231f20;fill-opacity:1;fill-rule:nonzero;stroke:none"
         d="m 137.094,668.594 c 0,12.422 14.082,18.652 33.75,16.992 0,-8.106 -0.242,-14.551 -2.41,-20.02 h 31.601 l -0.195,39.258 c 0,4.785 -0.215,17.188 -7.246,25.684 -10.352,12.012 -28.574,13.457 -37.278,13.457 -9.929,0 -22.148,-1.66 -31.679,-8.477 -10.965,-7.871 -11.59,-19.062 -11.805,-24.629 h 30.039 c 0,2.461 0,5.782 2.266,9.297 2.676,3.946 7.246,5.801 11.609,5.801 2.891,0 10.949,-1.035 13.652,-8.691 1.243,-3.731 1.446,-7.051 1.446,-13.868 -10.145,0 -28.563,0 -41.406,-5.8 -18.915,-8.75 -22.032,-23.653 -22.137,-32.032 h 30.117 c -0.195,1.016 -0.324,2.032 -0.324,3.028" /><path
         id="path36"
         style="fill:#231f20;fill-opacity:1;fill-rule:nonzero;stroke:none"
         d="m 257.672,697.598 c 0,8.066 1.855,13.242 3.719,15.937 3.312,4.961 9.328,8.067 15.949,8.067 7.871,0 12.637,-4.336 14.902,-8.907 1.66,-3.3 1.66,-7.031 1.66,-11.386 v -35.743 h 31.27 v 27.266 c 0,19.453 -0.625,24.844 -2.891,31.27 -2.695,7.226 -11.398,19.668 -31.894,19.668 -22.785,0 -31.067,-13.477 -33.965,-18.223 l -0.832,15.723 h -29.402 c 0.632,-7.247 0.632,-18.633 0.632,-19.043 v -56.661 h 30.852 v 32.032" /><path
         id="path38"
         style="fill:#231f20;fill-opacity:1;fill-rule:nonzero;stroke:none"
         d="m 377.75,687.031 c 0,10.567 2.285,35.196 22.781,35.196 13.86,0 22.766,-11.192 22.766,-31.68 0,-5.176 -0.41,-15.938 -4.961,-24.629 -0.059,-0.117 -0.156,-0.234 -0.215,-0.352 h 35 v 120.235 h -30.859 v -57.774 c -2.696,3.731 -10.567,14.278 -29.395,14.278 -27.336,0 -46.172,-21.524 -46.172,-56.094 0,-7.676 0.938,-14.531 2.676,-20.645 h 32.52 c -2.832,5.879 -4.141,13.438 -4.141,21.465" /><path
         id="path40"
         style="fill:#231f20;fill-opacity:1;fill-rule:nonzero;stroke:none"
         d="m 504.664,680.82 h 70.184 c 0.41,8.692 0.84,24.004 -6.211,38.301 -9.52,19.453 -27.332,25.254 -42.235,25.254 -11.386,0 -21.328,-3.301 -29.406,-8.691 -17.598,-12.207 -21.738,-32.5 -21.738,-49.493 0,-7.461 0.84,-14.355 2.539,-20.625 h 29.035 c -2.148,5.801 -2.168,12.071 -2.168,15.254 m 20.703,42.657 c 17.813,0 18.223,-18.653 18.223,-23.399 h -37.891 c 0.625,12.207 6.211,23.399 19.668,23.399" /><path
         id="path42"
         style="fill:#231f20;fill-opacity:1;fill-rule:nonzero;stroke:none"
         d="m 681.09,669.219 c 0,14.297 -8.899,24.023 -27.93,29.199 l -18.859,5.176 c -9.11,2.48 -14.285,3.926 -14.285,10.976 0,6.407 6.211,10.352 14.492,10.352 4.754,0 14.082,-0.84 14.922,-12.422 h 27.949 c -0.84,20.918 -18.234,30.859 -39.758,30.859 -27.129,0 -45.769,-12.441 -45.769,-32.714 0,-21.329 18.027,-26.504 26.511,-29.004 l 19.055,-5.176 c 11.23,-3.086 14.102,-6.582 14.434,-10.899 h 28.847 c 0.145,1.211 0.391,2.422 0.391,3.653" /><path
         id="path44"
         style="fill:#231f20;fill-opacity:1;fill-rule:nonzero;stroke:none"
         d="m 0,817.051 v 149.512 h 56.1094 c 26.7187,1.64 54.0506,-9.532 54.0506,-38.731 0,-16.367 -11.3944,-27.754 -26.3162,-32.715 v -0.41 c 18.8552,-3.945 32.9372,-16.973 32.9372,-38.926 0,-29.609 -37.2732,-40.371 -60.2537,-38.73 z m 57.1484,89.453 c 13.4532,0 20.9141,5.586 20.9141,17.598 0,12.011 -7.4609,17.597 -20.9141,17.597 H 32.0781 v -35.195 z m 0,-64.59 c 15.1133,0 25.4649,2.676 25.4649,19.863 0,17.188 -10.3516,19.883 -25.4649,19.883 H 32.0781 v -39.746 h 25.0703" /><path
         id="path46"
         style="fill:#231f20;fill-opacity:1;fill-rule:nonzero;stroke:none"
         d="m 137.164,891.582 c 0.215,13.066 5.801,21.133 14.082,25.898 8.484,4.961 19.453,6.622 30.645,6.622 20.898,0 44.297,-7.657 44.297,-38.926 v -56.738 c 0.214,-5.176 1.035,-8.282 1.453,-11.387 h -27.957 c -0.606,4.765 -1.036,9.531 -1.036,13.887 h -0.39 c -7.051,-12.032 -17.813,-16.993 -31.906,-16.993 -19.461,0 -33.954,11.192 -33.954,31.485 0,7.246 3.321,24.843 22.168,32.91 12.422,5.39 28.145,6.015 40.567,5.586 v 9.746 c 0,4.355 -3.301,12.832 -14.278,12.832 -10.773,0 -14.296,-10.137 -13.867,-14.922 z m 25.047,-42.012 c 0,-8.691 6.418,-14.902 15.129,-14.902 17.187,0 17.793,19.043 17.793,31.25 -10.762,0.195 -32.922,0.41 -32.922,-16.348" /><path
         id="path48"
         style="fill:#231f20;fill-opacity:1;fill-rule:nonzero;stroke:none"
         d="m 323.559,966.543 h 31.066 V 837.754 c 0,-6.816 0.613,-13.867 1.035,-20.703 h -31.055 c -0.429,4.98 -0.839,9.746 -0.839,14.707 h -0.411 c -6.835,-12.227 -18.417,-17.813 -31.886,-17.813 -30.438,0 -44.715,28.36 -44.715,55.078 0,27.95 16.355,55.079 48.652,55.079 10.762,0 21.942,-6.407 27.735,-15.118 h 0.418 z M 301.207,834.668 c 16.758,0 22.352,20.078 22.352,34.355 0,14.297 -5.594,34.375 -22.352,34.375 -19.883,0 -22.363,-18.437 -22.363,-34.375 0,-15.937 2.48,-34.355 22.363,-34.355" /><path
         id="path50"
         style="fill:#231f20;fill-opacity:1;fill-rule:nonzero;stroke:none"
         d="m 378.949,939.824 h 33.137 v 26.719 h -33.137 z m 1.047,-122.754 h 31.055 V 920.996 H 379.996 V 817.07" /><path
         id="path52"
         style="fill:#231f20;fill-opacity:1;fill-rule:nonzero;stroke:none"
         d="m 491.273,893.242 c -0.418,7.051 -7.039,10.156 -14.082,10.156 -8.484,0 -12.41,-2.48 -12.41,-9.316 0,-16.367 59.414,-7.031 59.414,-45.977 0,-22.773 -27.734,-34.16 -47.004,-34.16 -24.218,0 -45.339,9.532 -45.75,33.34 h 28.77 c 0.625,-8.066 7.871,-12.617 16.98,-12.617 8.489,0 14.914,3.516 14.914,11.582 0,8.281 -14.914,11.797 -21.113,13.242 -19.883,4.766 -38.32,9.121 -38.32,33.34 0,21.758 26.289,31.27 44.519,31.27 21.954,0 40.579,-7.872 42.032,-30.86 h -27.95" /><path
         id="path54"
         style="fill:#231f20;fill-opacity:1;fill-rule:nonzero;stroke:none"
         d="m 599.047,884.551 c -0.203,8.496 -3.719,18.847 -15.731,18.847 -13.261,0 -13.457,-24.843 -13.878,-32.91 0.832,-9.531 1.046,-35.82 14.289,-35.82 12.011,0 15.527,11.797 15.742,20.273 h 30.234 c -1.035,-26.484 -17.402,-40.996 -45.976,-40.996 -30.84,0 -46.379,27.539 -46.379,55.078 0,27.54 15.539,55.079 46.379,55.079 26.503,0 46.171,-15.118 45.976,-39.551 h -30.656" /><path
         id="path56"
         style="fill:#231f20;fill-opacity:1;fill-rule:nonzero;stroke:none"
         d="m 649.957,817.051 v 149.512 h 30.84 V 908.77 l 0.41,-0.411 c 6.434,9.532 16.172,15.743 31.895,15.743 10.351,0 30.437,-7.657 34.168,-22.774 1.652,-6.406 2.07,-13.047 2.07,-16.562 v -67.715 h -31.063 v 62.539 c -0.207,11.172 -3.32,23.808 -18.632,23.808 -9.727,0 -18.223,-8.691 -18.633,-23.808 v -62.539 h -31.055" /><path
         id="path58"
         style="fill:#231f20;fill-opacity:1;fill-rule:nonzero;stroke:none"
         d="m 799.059,860.742 c 0,-13.457 1.863,-26.094 17.812,-26.094 10.762,0 16.141,3.946 19.043,13.477 h 27.949 c -2.695,-25.684 -22.773,-34.18 -46.992,-34.18 -35.625,0 -49.902,20.098 -49.902,54.864 0,31.269 18.222,55.293 49.902,55.293 19.453,0 35.606,-6.622 44.297,-24.844 2.91,-5.801 4.355,-12.012 5.176,-18.633 0.84,-6.426 0.84,-13.047 0.84,-19.883 z m 36.035,20.723 c 0,11.367 -3.106,21.933 -18.223,21.933 -14.289,0 -17.383,-10.566 -17.812,-21.933 h 36.035" /><path
         id="path60"
         style="fill:#231f20;fill-opacity:1;fill-rule:nonzero;stroke:none"
         d="m 941.129,893.242 c -0.43,7.051 -7.051,10.156 -14.082,10.156 -8.496,0 -12.422,-2.48 -12.422,-9.316 0,-16.367 59.414,-7.031 59.414,-45.977 0,-22.773 -27.734,-34.16 -46.992,-34.16 -24.219,0 -45.352,9.532 -45.762,33.34 h 28.789 c 0.606,-8.066 7.852,-12.617 16.973,-12.617 8.476,0 14.902,3.516 14.902,11.582 0,8.281 -14.902,11.797 -21.113,13.242 -19.883,4.766 -38.301,9.121 -38.301,33.34 0,21.758 26.289,31.27 44.512,31.27 21.953,0 40.566,-7.872 42.031,-30.86 h -27.949" /><path
         id="path62"
         style="fill:#ed1c24;fill-opacity:1;fill-rule:nonzero;stroke:none"
         d="m 191.02,490.293 93.421,14.043 2.704,-2.695 -30.782,-100.989 h 1.621 c 34.559,63.188 80.457,104.219 127.442,104.219 35.637,0 45.898,-28.609 30.238,-76.68 l -8.637,-28.074 h 1.618 c 36.722,65.344 81.543,104.754 127.441,104.754 42.121,0 49.144,-35.098 37.269,-74.519 L 533.926,298.594 c -4.863,-15.664 -6.477,-27 3.777,-27 14.051,0 37.809,35.094 46.988,52.918 l 12.422,-8.633 c -17.285,-38.887 -45.359,-72.91 -83.707,-72.91 -25.922,0 -36.179,19.441 -27,51.308 l 43.203,146.875 c 6.477,22.149 0,35.11 -16.75,35.11 -41.574,0 -85.316,-71.282 -104.214,-115.032 -13.5,-30.234 -23.219,-60.476 -38.34,-111.777 l -45.364,-5.937 c 16.204,61.015 35.102,130.683 50.762,191.699 8.645,30.246 0.543,41.047 -14.582,41.047 -41.039,0 -88.019,-75.071 -105.84,-118.813 -10.801,-26.988 -21.058,-56.16 -35.636,-107.996 l -45.907,-5.937 52.383,207.363 c 4.317,16.199 5.402,23.223 -7.019,24.297 l -30.782,2.16 2.7,12.957" /><path
         id="path64"
         style="fill:#ed1c24;fill-opacity:1;fill-rule:nonzero;stroke:none"
         d="M 889.254,504.336 835.25,298.059 c -4.316,-15.664 -5.402,-27.004 4.863,-27.004 13.496,0 37.801,34.558 48.055,53.457 l 12.422,-8.633 c -17.82,-37.805 -48.602,-72.91 -85.86,-72.91 -27,0 -33.476,21.601 -23.757,56.164 l 15.117,52.918 h -1.074 c -30.782,-58.86 -81.543,-109.082 -130.684,-109.082 -40.508,0 -44.824,34.023 -34.023,74.519 l 34.558,133.391 c 4.317,15.652 4.863,23.223 -7.558,24.297 l -30.782,2.16 2.696,12.957 93.429,14.043 2.696,-2.156 -48.594,-186.848 c -7.57,-29.16 -3.789,-43.203 11.875,-43.203 39.422,0 85.32,68.586 107.461,119.883 12.422,29.707 21.601,54.004 36.719,106.386 l 46.445,5.938" /><path
         id="path66"
         style="fill:#ed1c24;fill-opacity:1;fill-rule:nonzero;stroke:none"
         d="m 1098.24,463.301 c 0,-14.578 -13.51,-22.149 -22.69,-22.149 -7.56,0 -11.87,3.782 -14.04,10.266 -9.72,22.684 -22.68,34.559 -39.96,34.559 -18.9,0 -30.784,-14.043 -30.784,-33.477 0,-17.285 4.328,-29.707 35.104,-55.09 35.64,-29.156 48.6,-44.812 48.6,-75.594 0,-39.421 -35.64,-78.847 -92.884,-78.847 -52.371,0 -72.898,30.781 -72.898,49.687 0,11.875 10.261,25.918 25.925,25.918 8.633,0 12.414,-4.863 15.657,-14.582 8.105,-26.465 28.621,-41.043 47.519,-41.043 19.441,0 34.561,12.969 34.561,36.184 0,16.746 -9.18,35.64 -36.182,58.863 -24.836,22.141 -44.816,38.879 -44.816,69.121 0,43.196 31.855,77.754 85.858,77.754 45.36,0 61.03,-27.535 61.03,-41.57" /><path
         id="path68"
         style="fill:#ed1c24;fill-opacity:1;fill-rule:nonzero;stroke:none"
         d="m 1285.05,456.816 c 0,17.286 -9.71,30.247 -27.54,30.247 -39.96,0 -76.13,-51.309 -84.77,-112.329 65.34,9.184 112.31,33.481 112.31,82.082 z m 30.25,-139.863 c -35.1,-56.699 -81,-73.984 -121.51,-73.984 -31.85,0 -75.05,12.969 -75.05,83.703 0,42.664 15.66,89.098 42.11,122.051 28.09,34.558 63.73,56.148 109.62,56.148 42.13,0 60.49,-24.297 60.49,-51.836 0,-69.656 -107.46,-89.637 -159.84,-95.586 -0.54,-3.777 -1.09,-16.199 -1.09,-18.894 0,-39.422 10.8,-69.66 45.9,-69.66 38.35,0 67.51,31.32 86.95,58.324 l 12.42,-10.266" /><path
         id="path70"
         style="fill:#ed1c24;fill-opacity:1;fill-rule:nonzero;stroke:none"
         d="m 1614.45,504.336 -54.01,-206.277 c -4.31,-15.664 -5.4,-27.004 4.87,-27.004 13.49,0 37.8,34.558 48.05,53.457 l 12.43,-8.633 c -17.83,-37.805 -48.61,-72.91 -85.86,-72.91 -27.01,0 -33.48,21.601 -23.76,56.164 l 15.11,52.918 h -1.07 c -30.78,-58.86 -81.54,-109.082 -130.68,-109.082 -40.51,0 -44.83,34.023 -34.03,74.519 l 34.56,133.391 c 4.32,15.652 4.87,23.223 -7.56,24.297 l -30.78,2.16 2.7,12.957 93.43,14.043 2.69,-2.156 -48.59,-186.848 c -7.57,-29.16 -3.79,-43.203 11.87,-43.203 39.43,0 85.33,68.586 107.46,119.883 12.43,29.707 21.61,54.004 36.72,106.386 l 46.45,5.938" /><path
         id="path72"
         style="fill:#ed1c24;fill-opacity:1;fill-rule:nonzero;stroke:none"
         d="m 1668.44,490.293 93.42,14.043 2.71,-2.695 -30.79,-100.989 h 1.63 c 34.56,63.188 80.45,104.219 127.44,104.219 35.64,0 45.9,-28.609 30.24,-76.68 l -8.64,-28.074 h 1.62 c 36.72,65.344 81.54,104.754 127.44,104.754 42.12,0 49.14,-35.098 37.26,-74.519 l -39.42,-131.758 c -4.86,-15.664 -6.48,-27 3.78,-27 14.04,0 37.79,35.094 46.97,52.918 l 12.43,-8.633 c -17.28,-38.887 -45.36,-72.91 -83.7,-72.91 -25.92,0 -36.19,19.441 -27.01,51.308 l 43.21,146.875 c 6.48,22.149 0,35.11 -16.74,35.11 -41.58,0 -85.32,-71.282 -104.22,-115.032 -13.51,-30.234 -23.22,-60.476 -38.34,-111.777 l -45.36,-5.937 c 16.2,61.015 35.1,130.683 50.76,191.699 8.63,30.246 0.54,41.047 -14.58,41.047 -41.05,0 -88.03,-75.071 -105.85,-118.813 -10.8,-26.988 -21.05,-56.16 -35.63,-107.996 l -45.9,-5.937 52.37,207.363 c 4.33,16.199 5.4,23.223 -7.02,24.297 l -30.77,2.16 2.69,12.957" /><path
         id="path74"
         style="fill:#ed1c24;fill-opacity:1;fill-rule:nonzero;stroke:none"
         d="m 2223.55,478.953 88.02,25.383 3.24,-2.156 22.69,-89.641 h 1.07 c 41.04,64.797 66.43,92.332 96.12,92.332 14.05,0 23.76,-7.558 23.76,-19.976 0,-13.5 -16.2,-28.618 -23.22,-28.618 -5.94,0 -6.48,1.075 -10.8,3.782 -5.4,3.781 -11.88,5.402 -16.2,5.402 -12.96,0 -41.04,-34.563 -65.34,-74.523 5.94,-24.844 15.12,-60.477 21.06,-80.461 7.02,-24.305 12.96,-37.262 21.6,-37.262 13.5,0 27,17.82 41.05,47.515 l 14.03,-8.093 c -15.65,-36.719 -39.41,-69.668 -75.6,-69.668 -22.14,0 -32.4,13.508 -41.58,48.601 -4.32,17.285 -8.64,34.028 -12.96,50.227 h -1.08 c -31.86,-51.848 -54,-98.828 -93.42,-98.828 -20.53,0 -32.4,11.347 -32.4,25.926 0,11.339 11.87,28.078 23.22,28.078 3.23,0 6.48,-1.075 9.72,-3.243 7.56,-5.937 15.66,-10.8 21.06,-10.8 18.9,0 50.22,51.843 67.5,83.164 l -23.22,85.324 c -4.86,17.281 -9.18,18.355 -19.98,17.281 l -37.27,-2.168 -1.07,12.422" /></g></g><path
     style="fill:#ffffff"
     d="m 36.93654,19.991687 c -1.357265,-0.481477 -2.81685,-2.004582 -3.404699,-3.55287 -0.503296,-1.32559 -0.698911,-3.914209 -0.400821,-5.304155 0.684568,-3.192031 3.02206,-5.3204487 5.891069,-5.3641516 1.474215,-0.022456 2.461438,0.352481 3.440762,1.3067665 l 0.708502,0.6903868 0,-3.9178768 0,-3.91787668 2.031037,0.05362538 2.031038,0.05362538 0.0489,9.96625302 0.0489,9.966253 -1.96526,0 c -2.175468,0 -2.192846,-0.01021 -2.196717,-1.290755 l -0.0021,-0.693049 -0.48402,0.614147 c -1.228198,1.558393 -3.632195,2.139742 -5.746602,1.389677 z m 3.874098,-2.476158 c 0.456893,0 1.466331,-1.010311 1.829315,-1.830898 1.053669,-2.381992 0.328485,-6.0824367 -1.36345,-6.9573702 -1.367436,-0.7071286 -2.9664,-0.1013287 -3.63623,1.3776592 -0.328802,0.725997 -0.405296,1.262304 -0.410238,2.8762 -0.0069,2.241565 0.218516,3.096608 1.018166,3.862722 0.540856,0.518173 1.569548,0.891403 2.057365,0.746453 0.138391,-0.04112 0.365673,-0.07477 0.505072,-0.07477 z"
     id="path3454"
     inkscape:connector-curvature="0" /><path
     style="fill:#ffffff"
     d="m 21.127777,20.154237 c -1.468796,-0.294188 -2.646476,-1.215021 -3.11947,-2.439124 -0.333059,-0.861956 -0.224848,-2.50927 0.228138,-3.472955 0.889155,-1.891597 2.859263,-2.874224 6.203014,-3.093867 l 1.769697,-0.116247 -0.08382,-1.010719 c -0.1365,-1.6460061 -1.230443,-2.4366735 -2.700192,-1.9516128 -0.652597,0.2153765 -1.225437,0.9612921 -1.225437,1.5956856 0,0.2449026 -0.308973,0.292783 -1.889337,0.292783 -1.834586,0 -1.889217,-0.012319 -1.885188,-0.4251009 0.0059,-0.6062472 0.623122,-1.8642984 1.154116,-2.3524427 0.248808,-0.2287296 0.87642,-0.6100455 1.394693,-0.8473686 0.805789,-0.3689797 1.257109,-0.4319069 3.115053,-0.4343295 1.871197,-0.00244 2.306943,0.057907 3.139749,0.4348263 1.145422,0.5184058 2.005369,1.3547388 2.464008,2.3963463 0.28422,0.6454869 0.343351,1.5067993 0.405331,5.9041783 l 0.07257,5.148444 -1.696255,0 c -1.838906,0 -1.919264,-0.05319 -1.926681,-1.275303 -0.0035,-0.573109 -0.101501,-0.540769 -0.81132,0.26768 -1.016469,1.157709 -2.900024,1.721355 -4.608669,1.379126 z m 3.939682,-2.946998 c 0.555102,-0.494449 0.86108,-1.306309 1.019259,-2.70443 l 0.135947,-1.201609 -1.538223,0.105432 c -1.875364,0.12854 -2.670864,0.528062 -2.993804,1.503572 -0.516526,1.560279 0.545584,2.897757 2.16991,2.732491 0.445849,-0.04536 0.988959,-0.241318 1.206911,-0.435456 z"
     id="path3460"
     inkscape:connector-curvature="0" /><path
     style="fill:#ffffff"
     d="m 4.1093082,19.826209 -4.01484134,-0.05099 0,-9.8343127 0,-9.83431352 5.15318524,0.0607515 5.1531849,0.0607514 1.263836,0.62256257 c 1.50553,0.74162084 2.312803,1.64297724 2.721115,3.03824744 0.36041,1.2315784 0.232746,2.2589392 -0.418886,3.3709435 -0.461529,0.787595 -1.664554,1.7657558 -2.489179,2.0239129 -0.635444,0.1989323 -0.518465,0.3821434 0.401017,0.6280673 2.037866,0.5450456 3.519357,2.5253576 3.519357,4.7043296 0,2.389614 -1.524401,4.018139 -4.540095,4.850202 -1.3883283,0.383056 -2.0679966,0.419297 -6.7486938,0.359849 z m 5.1484436,-3.249826 c 0.4518288,-0.104265 0.9646702,-0.407558 1.2753022,-0.754208 0.449476,-0.501592 0.519473,-0.73871 0.518862,-1.757667 -9.07e-4,-1.514753 -0.444005,-2.301825 -1.4537022,-2.58221 C 9.2031326,11.372587 7.8383873,11.28235 6.5654464,11.28177 l -2.3144379,-0.0011 0,2.739539 0,2.739538 2.1255042,-0.0045 c 1.1690274,-0.0025 2.465585,-0.08299 2.8812391,-0.178904 z M 9.4986283,7.6901831 C 10.269656,7.2200877 10.543506,6.537836 10.434058,5.3597166 10.27846,3.6848328 9.1747878,3.1565672 5.8311575,3.1565672 l -1.580149,0 0,2.4561382 0,2.4561383 2.3144379,-6.991e-4 C 8.545286,8.06754 8.9693362,8.0128996 9.4986283,7.6901903 l 0,-7.2e-6 z"
     id="path3462"
     inkscape:connector-curvature="0" /><path
     style="fill:#ffffff"
     d="m 50.728701,12.98112 0,-6.8016134 1.983804,0 1.983804,0 0,6.8016134 0,6.801614 -1.983804,0 -1.983804,0 0,-6.801614 z"
     id="path3464"
     inkscape:connector-curvature="0" /><path
     style="fill:#ffffff"
     d="m 50.539768,1.8340312 0,-1.70040337 2.172737,0 2.172738,0 0,1.70040337 0,1.7004034 -2.172738,0 -2.172737,0 0,-1.7004034 z"
     id="path3466"
     inkscape:connector-curvature="0" /><path
     style="fill:#ffffff"
     d="m 62.148755,20.169896 c -1.148676,-0.177985 -2.652965,-0.817674 -3.264704,-1.388293 -0.582223,-0.543087 -1.164802,-1.69228 -1.164802,-2.297682 0,-0.479389 0.0017,-0.479861 1.753448,-0.479861 l 1.753449,0 0.215191,0.570105 c 0.375909,0.995896 2.263987,1.464031 3.44388,0.853885 0.595007,-0.30769 0.769247,-0.630629 0.769247,-1.42573 0,-0.714845 -0.62519,-1.184185 -2.11591,-1.588446 -4.252602,-1.153242 -5.222108,-1.78929 -5.653427,-3.708951 -0.63394,-2.8214573 2.369927,-5.1003433 6.414305,-4.8662179 2.59261,0.1500839 4.393757,1.3946233 4.693747,3.2432401 l 0.111533,0.6873019 -1.7298,0 c -1.659778,0 -1.736893,-0.018655 -1.905014,-0.4608468 -0.240447,-0.6324251 -0.819864,-0.8989613 -1.935443,-0.89032 -1.107268,0.00858 -1.658665,0.4001191 -1.658665,1.1778025 0,0.7592902 0.646124,1.1713822 2.775343,1.7700902 3.743076,1.052503 5.065406,2.188684 5.065406,4.35233 0,0.943962 -0.095,1.307104 -0.503362,1.924186 -1.222126,1.846757 -4.315283,2.953382 -7.064422,2.527407 z"
     id="path3468"
     inkscape:connector-curvature="0" /><path
     style="fill:#ffffff"
     d="M 76.749149,20.158712 C 72.599127,19.435937 70.479166,13.865951 72.616077,9.2994778 73.75064,6.8749713 75.69293,5.6976009 78.316763,5.8438551 81.3048,6.0104104 83.772588,8.0153159 83.787951,10.288815 l 0.0041,0.614034 -1.856028,0 -1.856027,0 -0.269477,-0.882553 C 79.482656,8.9463599 78.820101,8.4089244 77.824057,8.4089244 c -0.99505,0 -1.47381,0.5971127 -1.780042,2.2200816 -0.260598,1.381116 -0.15628,4.178371 0.203113,5.446419 0.558229,1.969598 2.515259,2.204702 3.385643,0.406728 0.20936,-0.432481 0.380655,-0.929527 0.380655,-1.104546 0,-0.277118 0.244011,-0.318216 1.889338,-0.318216 1.850682,0 1.889337,0.009 1.889337,0.438678 0,1.670301 -1.628628,3.800512 -3.317367,4.339048 -1.238942,0.395096 -2.61937,0.514255 -3.725585,0.321595 z"
     id="path3470"
     inkscape:connector-curvature="0" /><path
     style="fill:#ffffff"
     d="m 86.81504,9.9581808 0,-9.82455297 1.889337,0 1.889337,0 0,3.87314107 c 0,2.1302276 0.05251,3.8731411 0.116695,3.8731411 0.06418,0 0.451518,-0.3348242 0.860748,-0.7440539 1.925057,-1.9250573 5.600443,-1.6471044 7.364332,0.5569315 0.773584,0.9666171 0.915977,2.115803 0.915977,7.3923914 l 0,4.697555 -1.972014,0 -1.972014,0 -0.05902,-4.770576 C 95.784701,9.8624923 95.721745,9.5111829 94.731344,8.7785922 94.118502,8.3252789 92.652476,8.292241 92.004013,8.7171304 91.75059,8.8831799 91.372109,9.3544888 91.162946,9.7644835 90.812421,10.451569 90.782648,10.872902 90.782648,15.146331 l 0,4.636403 -1.983804,0 -1.983804,0 0,-9.8245532 z"
     id="path3472"
     inkscape:connector-curvature="0" /><path
     style="fill:#ffffff"
     d="m 107.45246,20.145961 c -2.97197,-0.514146 -4.49282,-2.198289 -4.9768,-5.511191 -0.70525,-4.8274509 1.85908,-8.550605 6.05661,-8.7935964 4.18192,-0.2420873 6.65716,2.1159693 6.94938,6.6203784 l 0.10725,1.65317 -4.58881,0 -4.58881,0 0.10286,0.991902 c 0.13963,1.346624 0.45419,1.958267 1.18557,2.305333 1.32823,0.630286 2.98672,0.194792 3.60082,-0.945516 l 0.35075,-0.651315 1.73668,0 1.73668,0 -0.19455,0.708501 c -0.29798,1.085191 -0.6261,1.61914 -1.45535,2.368322 -1.19159,1.076526 -3.84928,1.629935 -6.02228,1.254012 z m 3.92118,-9.384812 c -0.006,-1.4787172 -0.88759,-2.3312636 -2.42349,-2.3431607 -1.5588,-0.012074 -2.1967,0.5662692 -2.41979,2.1938417 l -0.11758,0.85782 2.48182,0 2.48182,0 -0.003,-0.708501 z"
     id="path3474"
     inkscape:connector-curvature="0" /><path
     style="fill:#ffffff"
     d="m 121.95671,20.141624 c -2.11607,-0.359531 -3.59041,-1.426352 -4.12513,-2.984922 -0.39441,-1.149576 -0.39025,-1.152642 1.56422,-1.152642 1.76103,0 1.78781,0.0069 2.03125,0.519567 0.58957,1.241716 2.97962,1.57089 3.87212,0.533296 0.23992,-0.278924 0.43621,-0.707385 0.43621,-0.952137 0,-0.628946 -0.95595,-1.363999 -2.23253,-1.716634 -2.8964,-0.800088 -3.61141,-1.060816 -4.32328,-1.576492 -1.49848,-1.085491 -1.83192,-3.4473719 -0.69063,-4.8919547 0.8756,-1.1082909 2.71865,-1.9394173 4.58428,-2.0672906 3.28181,-0.2249407 5.36705,0.9607995 5.97442,3.3972647 l 0.12952,0.5195677 -1.81536,0 c -1.3816,0 -1.81535,-0.059845 -1.81535,-0.2504668 0,-0.1377567 -0.20324,-0.4414002 -0.45164,-0.6747633 -0.36006,-0.3382566 -0.67203,-0.4242964 -1.53846,-0.4242964 -1.39106,0 -1.70504,0.3075435 -1.6214,1.5881494 0.0274,0.41939 1.05453,0.894731 3.55165,1.643655 3.16668,0.949731 4.29689,2.114148 4.17202,4.298274 -0.0554,0.968816 -0.16767,1.298769 -0.64294,1.889338 -1.47081,1.82763 -4.34192,2.764126 -7.05897,2.302487 z"
     id="path3476"
     inkscape:connector-curvature="0" /><path
     style="fill:#ffffff"
     d="m 0.09446686,34.047229 0,-9.91902 2.07827084,0 2.0782708,0 0,8.313083 0,8.313084 4.0620748,0 4.0620747,0 0,1.605936 0,1.605937 -6.1403456,0 -6.14034554,0 0,-9.91902 z"
     id="path3478"
     inkscape:connector-curvature="0" /><path
     style="fill:#ffffff"
     d="m 14.453429,39.614705 c 0,-0.635048 0.548244,-1.749444 1.190411,-2.419707 1.230594,-1.284434 3.160342,-1.9197 5.831471,-1.9197 1.488457,0 1.521534,-0.01 1.410283,-0.425101 -0.06266,-0.233805 -0.115083,-0.707956 -0.116502,-1.053669 -0.0018,-0.440601 -0.167729,-0.793717 -0.554848,-1.180835 -1.047676,-1.047677 -3.022475,-0.588328 -3.321379,0.77257 l -0.123984,0.564499 -1.897942,0 -1.897942,0 0.122013,-0.610066 c 0.330054,-1.650272 1.498046,-2.764915 3.412955,-3.257066 3.109446,-0.799159 6.327272,0.137756 7.47042,2.175118 0.447687,0.797884 0.475582,1.021742 0.534573,4.289853 l 0.06224,3.44804 -1.964937,0 -1.964938,0 0.141269,-0.991902 c 0.245723,-1.725308 0.280047,-1.65317 -0.786617,-1.65317 -2.146849,0 -3.767871,0.900371 -3.767871,2.092804 l 0,0.552268 -1.889337,0 c -1.773335,0 -1.889337,-0.02357 -1.889337,-0.383936 z"
     id="path3480"
     inkscape:connector-curvature="0" /><path
     style="fill:#ffffff"
     d="m 30.323861,35.086364 0,-4.912276 1.774656,0 c 1.977683,0 2.004018,0.01775 2.004018,1.350581 l 0,0.752876 0.917379,-0.941838 c 1.393905,-1.431069 3.209433,-1.864592 5.259299,-1.255847 1.14675,0.340548 2.381126,1.567794 2.68781,2.672285 0.111222,0.400556 0.202697,2.194881 0.203276,3.987389 l 0.0011,3.259107 -1.983804,0 -1.983804,0 0,-3.041833 0,-3.041833 -0.642375,-0.642374 c -0.557587,-0.557588 -0.765867,-0.642375 -1.577996,-0.642375 -1.173334,0 -2.125933,0.591416 -2.445075,1.518012 -0.12948,0.375932 -0.230044,1.760929 -0.236167,3.252564 l -0.01066,2.597839 -1.983803,0 -1.983804,0 0,-4.912277 z"
     id="path3482"
     inkscape:connector-curvature="0" /><path
     style="fill:#ffffff"
     d="m 46.464373,39.125471 c -0.213593,-1.424342 0.02301,-4.021351 0.474729,-5.210804 1.401215,-3.689606 5.871646,-5.080183 8.659715,-2.6937 l 0.797896,0.682969 0,-3.887864 0,-3.887863 1.983804,0 1.983804,0 0,7.935216 0,7.935216 -2.192952,0 c -2.012091,0 -2.18223,-0.02727 -2.062956,-0.330634 0.0715,-0.181849 0.214339,-0.840755 0.317426,-1.464236 0.35115,-2.12381 -0.212494,-4.387148 -1.280613,-5.142362 -1.72444,-1.219266 -3.879835,-0.387033 -4.521761,1.745928 -0.307328,1.021171 -0.362972,3.65073 -0.09689,4.578517 l 0.175745,0.612787 -2.053506,0 -2.053505,0 -0.13094,-0.87317 z"
     id="path3484"
     inkscape:connector-curvature="0" /><path
     style="fill:#ffffff"
     d="m 63.635544,39.290139 c -0.474858,-2.293279 0.156032,-5.489641 1.407746,-7.132247 2.052136,-2.692992 6.647739,-3.172893 9.228668,-0.963714 1.361074,1.165029 2.328749,3.656351 2.337381,6.017691 l 0.0033,0.897435 -4.747684,0 -4.747683,0 0.125315,0.944668 0.125315,0.944669 -1.792817,0 -1.792816,0 -0.146706,-0.708502 z m 8.890957,-4.439942 c -0.263974,-1.723611 -1.006997,-2.452505 -2.500046,-2.452505 -1.506091,0 -2.324303,0.781662 -2.595864,2.479906 l -0.124018,0.775567 2.671452,0 2.671452,0 -0.122976,-0.802968 z"
     id="path3486"
     inkscape:connector-curvature="0" /><path
     style="fill:#ffffff"
     d="m 63.852041,39.797486 c -0.296617,-0.479936 -0.306591,-3.140458 -0.0164,-4.373135 0.594531,-2.525411 1.517306,-3.841242 3.383837,-4.82518 0.893892,-0.471213 1.170151,-0.51955 2.96939,-0.51955 1.847786,0 2.053488,0.03859 3.000129,0.562887 1.864042,1.032392 2.985391,3.094293 3.213071,5.908093 l 0.126123,1.558703 -4.747864,0 -4.747864,0 0.09077,0.944668 0.09077,0.944669 -1.618824,0 c -0.940983,0 -1.67088,-0.08423 -1.743145,-0.201155 z m 8.723574,-5.025346 c -0.246992,-1.802004 -1.351182,-2.69393 -3.014077,-2.434666 -1.328956,0.2072 -1.882102,0.882118 -2.291633,2.796124 l -0.11117,0.519567 2.768819,0 2.768819,0 -0.120758,-0.881025 z"
     id="path3488"
     inkscape:connector-curvature="0" /><path
     style="fill:#ffffff"
     d="M 86.939875,39.726249 C 86.749552,39.230276 85.95273,38.86604 83.584298,38.19238 82.295757,37.825876 80.92435,37.317075 80.536726,37.061711 c -0.907054,-0.597563 -1.469172,-1.697842 -1.463819,-2.865255 0.0121,-2.639485 2.323196,-4.296018 5.947263,-4.262847 2.882428,0.02638 4.559408,1.113471 5.107122,3.310652 l 0.129519,0.519567 -1.768119,-0.0041 -1.768119,-0.0041 -0.2834,-0.609945 c -0.368387,-0.792856 -1.378898,-1.156421 -2.508672,-0.902578 -0.925079,0.207852 -1.270003,0.603832 -1.270003,1.45799 0,0.821163 0.319962,1.006588 3.192461,1.850107 2.780776,0.816584 3.180735,1.007369 3.951024,1.88468 0.589935,0.671898 1.096056,2.034246 0.883504,2.378162 -0.06274,0.101516 -0.907651,0.184575 -1.87758,0.184575 -1.361595,0 -1.787328,-0.06208 -1.868032,-0.272392 z"
     id="path3490"
     inkscape:connector-curvature="0" /><path
     style="fill:#ffffff"
     d="m 0.09446686,118.40187 0,-9.82882 3.42633914,0.0515 3.4263392,0.0515 2.0601476,7.07668 c 1.1330812,3.89218 2.0993232,7.11586 2.1472052,7.16374 0.144447,0.14445 0.191766,0.0215 0.972486,-2.52653 l 0.752561,-2.45613 1.612804,-0.0542 1.612803,-0.0542 -1.643615,5.15544 -1.643615,5.15545 -1.702551,0.0539 -1.7025501,0.0539 -2.6009414,-8.367 c -1.4305178,-4.60186 -2.6769458,-8.44778 -2.76984,-8.5465 -0.099398,-0.10563 -0.1688984,3.33457 -0.1688984,8.36032 l 0,8.5398 -1.8893371,0 -1.88933714,0 0,-9.82881 z"
     id="path3492"
     inkscape:connector-curvature="0" /><path
     style="fill:#ffffff"
     d="m 18.421037,123.03501 0,-5.19568 1.983804,0 1.983804,0 0,5.19568 0,5.19567 -1.983804,0 -1.983804,0 0,-5.19567 z"
     id="path3494"
     inkscape:connector-curvature="0" /><path
     style="fill:#ffffff"
     d="m 29.545885,128.34771 c -1.210845,-0.43269 -2.047114,-1.07372 -2.577269,-1.97557 -0.511641,-0.87035 -0.518635,-0.92721 -0.579056,-4.7069 l -0.06116,-3.82591 1.903264,0 1.903263,0 0.01126,2.59784 c 0.01442,3.32506 0.172044,4.28402 0.808857,4.92084 0.415189,0.41519 0.667208,0.49751 1.523104,0.49751 0.564077,0 1.252596,-0.12149 1.530042,-0.26997 0.955426,-0.51133 1.115742,-1.12639 1.194192,-4.58158 l 0.07185,-3.16464 1.964754,0 1.964754,0 0.0021,4.48718 c 0.0012,2.46794 0.05478,4.806 0.119187,5.19567 l 0.117108,0.7085 -1.914058,0 -1.914058,0 0,-0.55135 c 0,-1.16005 -0.162443,-1.20788 -1.134386,-0.33402 -0.497972,0.44772 -1.242752,0.9151 -1.655066,1.03864 -0.96678,0.28965 -2.411386,0.27369 -3.278667,-0.0362 z"
     id="path3496"
     inkscape:connector-curvature="0" /><path
     style="fill:#ffffff"
     d="m 45.600536,128.35626 c -1.75582,-0.65322 -2.851966,-1.73045 -3.155746,-3.10128 l -0.177939,-0.80297 1.831299,0 1.831299,0 0.232254,0.64229 c 0.312628,0.86455 1.271434,1.32132 2.521484,1.2012 1.217009,-0.11694 1.856581,-0.69353 1.856581,-1.67378 0,-1.00201 -0.513822,-1.33187 -3.225066,-2.0704 -1.257353,-0.34249 -2.649216,-0.853 -3.093029,-1.13445 -0.931375,-0.59066 -1.617121,-1.81255 -1.617121,-2.88146 l 0,-0.69608 1.79487,0 c 1.618656,0 1.79487,0.0342 1.79487,0.34858 0,0.604 0.603762,0.93493 2.837086,1.55502 1.193312,0.33132 2.5285,0.76942 2.967086,0.97354 3.234196,1.50524 2.986024,5.47388 -0.448016,7.16445 -1.170553,0.57626 -1.449036,0.63422 -3.270594,0.68064 -1.326726,0.0338 -2.220734,-0.0347 -2.679318,-0.2053 z"
     id="path3498"
     inkscape:connector-curvature="0" /><path
     style="fill:#ffffff"
     d="m 61.120055,128.55 c -2.487017,-0.72002 -3.735054,-2.05333 -4.344334,-4.64117 -0.283703,-1.20499 -0.164206,-4.10215 0.215276,-5.2193 l 0.256714,-0.75573 1.825214,-0.0539 1.825214,-0.0539 -0.266909,0.88688 c -0.1468,0.48778 -0.266909,0.95838 -0.266909,1.04577 0,0.0874 1.190282,0.15891 2.645071,0.15891 2.619375,0 2.645072,-0.004 2.645072,-0.42635 0,-0.23449 -0.07909,-0.7021 -0.175745,-1.03913 l -0.175745,-0.61279 1.867268,0 1.867268,0 0.215576,0.7085 c 0.118566,0.38968 0.260755,1.40992 0.315973,2.26721 l 0.100398,1.5587 -4.652568,0 -4.652568,0 0,0.90038 c 0,1.79987 1.07119,2.89359 2.84746,2.90735 1.135684,0.009 1.815809,-0.38707 2.25375,-1.3118 l 0.2834,-0.59842 1.747637,-0.004 c 2.018154,-0.005 2.039681,0.0221 1.297829,1.61523 -0.520094,1.11693 -1.536703,2.02347 -2.751484,2.45358 -1.158763,0.41027 -3.842047,0.52693 -4.922858,0.21402 z"
     id="path3500"
     inkscape:connector-curvature="0" /><path
     style="fill:#ffffff"
     d="m 75.925791,128.40279 c -0.964727,-0.2796 -2.378407,-1.3496 -2.75402,-2.08448 -0.517176,-1.01186 -0.713375,-2.5747 -0.714599,-5.69221 l -0.0011,-2.78677 1.968197,0 1.968197,0 0.06918,3.25911 c 0.0743,3.50029 0.204947,4.06127 1.05117,4.51365 0.7179,0.38378 2.220942,0.30331 2.835999,-0.15184 0.919012,-0.68007 1.057226,-1.23083 1.142021,-4.55075 l 0.07842,-3.07017 1.961621,0 1.961621,0 0.0026,4.77058 c 0.0014,2.62381 0.05385,4.96187 0.116502,5.19567 0.112585,0.42011 0.09172,0.4251 -1.775998,0.4251 l -1.889919,0 -0.127496,-0.8502 c -0.07012,-0.46761 -0.170285,-0.8502 -0.222583,-0.8502 -0.0523,0 -0.31993,0.26721 -0.594737,0.5938 -1.038773,1.23451 -3.279541,1.79909 -5.075061,1.27871 z"
     id="path3502"
     inkscape:connector-curvature="0" /><path
     style="fill:#ffffff"
     d="m 89.460112,123.03501 0,-5.19568 2.192951,0 c 2.024251,0 2.180496,0.0254 2.031038,0.33063 -0.08905,0.18185 -0.185923,2.51991 -0.215268,5.19568 l -0.05335,4.86504 -1.977683,0 -1.977684,0 0,-5.19567 z"
     id="path3504"
     inkscape:connector-curvature="0" /><path
     style="fill:#ffffff"
     d="m 98.339996,123.40045 c 0,-2.96829 -0.07539,-4.9711 -0.195581,-5.19567 -0.188753,-0.35269 -0.108904,-0.36545 2.287415,-0.36545 2.28747,0 2.47294,0.026 2.35526,0.33063 -0.35281,0.91315 -0.47949,2.52976 -0.47949,6.1189 l 0,3.94182 -1.9838,0 -1.983804,0 0,-4.83023 z"
     id="path3506"
     inkscape:connector-curvature="0" /><path
     style="fill:#ffffff"
     d="m 107.36894,123.36564 c -0.0347,-2.67577 -0.13405,-5.01383 -0.22076,-5.19568 -0.14514,-0.30438 0.007,-0.33063 1.9161,-0.33063 l 2.07377,0 0.11711,0.7085 c 0.0644,0.38968 0.11804,2.72773 0.11918,5.19568 l 0.002,4.48717 -1.97219,0 -1.97219,0 -0.0631,-4.86504 z"
     id="path3508"
     inkscape:connector-curvature="0" /></svg>