<?xml version="1.0" encoding="UTF-8" standalone="no"?>
<svg
   xmlns:dc="http://purl.org/dc/elements/1.1/"
   xmlns:cc="http://creativecommons.org/ns#"
   xmlns:rdf="http://www.w3.org/1999/02/22-rdf-syntax-ns#"
   xmlns:svg="http://www.w3.org/2000/svg"
   xmlns="http://www.w3.org/2000/svg"
   viewBox="0 0 327.79999 128.89333"
   height="128.89333"
   width="327.79999"
   xml:space="preserve"
   id="svg2"
   version="1.1"><metadata
     id="metadata8"><rdf:RDF><cc:Work
         rdf:about=""><dc:format>image/svg+xml</dc:format><dc:type
           rdf:resource="http://purl.org/dc/dcmitype/StillImage" /></cc:Work></rdf:RDF></metadata><defs
     id="defs6" /><g
     transform="matrix(1.3333333,0,0,-1.3333333,0,128.89333)"
     id="g10"><g
       transform="scale(0.1)"
       id="g12"><path
         id="path14"
         style="fill:#231f20;fill-opacity:1;fill-rule:nonzero;stroke:none"
         d="m 137.281,3.92578 h 31.875 V 83.1445 H 137.281 V 3.92578" /><path
         id="path16"
         style="fill:#231f20;fill-opacity:1;fill-rule:nonzero;stroke:none"
         d="M 0,153.633 V 3.92578 H 30.0195 V 132.305 L 69.9805,3.92578 H 96.4883 L 121.656,83.1445 H 96.1289 L 84.0781,44.7266 52.3789,153.633 H 0" /><path
         id="path18"
         style="fill:#231f20;fill-opacity:1;fill-rule:nonzero;stroke:none"
         d="m 263.375,55.7031 c 0,-17.8125 0,-32.5195 -19.668,-32.5195 -16.359,0 -16.359,13.8867 -16.359,22.9883 V 83.1445 H 196.305 V 43.4766 c 0,-5.1758 0,-19.668 6.816,-28.1446 5.801,-7.67575 17.402,-14.082 31.484,-14.082 19.872,0 27.735,11.9922 30.84,16.5625 l 1.043,-13.86719 h 29.817 c -0.41,2.89063 -0.625,4.7461 -0.84,7.65629 0,2.6757 -0.195,5.3711 -0.625,27.9492 V 83.1445 H 263.375 V 55.7031" /><path
         id="path20"
         style="fill:#231f20;fill-opacity:1;fill-rule:nonzero;stroke:none"
         d="m 318.773,78.2617 c 0,-21.3281 18.02,-26.4844 26.497,-28.9844 l 19.062,-5.1757 c 12.012,-3.3203 14.481,-7.0313 14.481,-11.7969 0,-6.2109 -5.165,-12.4219 -16.141,-12.4219 -12.832,0 -16.973,7.6563 -17.402,14.2774 H 316.5 c 0.203,-4.961 0.82,-13.2422 7.656,-20.5079 9.512,-9.92183 22.364,-12.812456 35.821,-12.812456 32.5,0 48.046,18.007856 48.046,36.015656 0,14.2773 -8.906,24.0234 -27.96,29.1992 l -18.836,5.1758 c -9.114,2.4804 -14.297,3.9258 -14.297,10.9765 0,0.3321 0.078,0.625 0.117,0.9375 h -27.852 c -0.254,-1.582 -0.422,-3.1836 -0.422,-4.8828" /><path
         id="path22"
         style="fill:#231f20;fill-opacity:1;fill-rule:nonzero;stroke:none"
         d="m 491.734,67.7148 h -37.902 c 0.285,5.7422 1.731,11.211 4.531,15.4297 H 428.91 c -4.129,-9.5117 -5.508,-19.9023 -5.508,-29.2968 0,-16.7969 3.938,-30.8594 13.45,-40.8008 C 447.828,1.66016 464.82,0 473.707,0 c 15.332,0 29.004,4.14063 36.66,12.2266 8.485,8.8867 9.512,17.7929 9.942,22.7734 h -27.95 c -2.91,-11.6016 -10.578,-14.4922 -18.222,-14.4922 -21.348,0 -21.348,21.1133 -21.348,27.9492 h 70.203 c 0.391,7.9688 0.696,21.4844 -4.668,34.6875 h -30.027 c 3.301,-5.6836 3.437,-12.7539 3.437,-15.4297" /><path
         id="path24"
         style="fill:#231f20;fill-opacity:1;fill-rule:nonzero;stroke:none"
         d="m 610.297,55.7031 c 0,-17.8125 0,-32.5195 -19.668,-32.5195 -16.375,0 -16.375,13.8867 -16.375,22.9883 V 83.1445 H 543.207 V 43.4766 c 0,-5.1758 0,-19.668 6.848,-28.1446 5.781,-7.67575 17.383,-14.082 31.465,-14.082 19.882,0 27.734,11.9922 30.847,16.5625 l 1.047,-13.86719 h 29.805 c -0.41,2.89063 -0.625,4.7461 -0.832,7.65629 0,2.6757 -0.203,5.3711 -0.606,27.9492 V 83.1445 H 610.297 V 55.7031" /><path
         id="path26"
         style="fill:#231f20;fill-opacity:1;fill-rule:nonzero;stroke:none"
         d="m 670.25,3.92578 h 30.84 V 65.4297 c 0,4.3164 0.008,12.2461 4.5,17.7148 H 670.25 V 3.92578" /><path
         id="path28"
         style="fill:#231f20;fill-opacity:1;fill-rule:nonzero;stroke:none"
         d="M 804.84,65.4297 V 3.94531 h 30.859 V 62.9492 c 0,5.8985 0.137,13.2617 -1.269,20.1953 h -33.653 c 3.418,-4.6484 4.063,-11.3476 4.063,-17.7148" /><path
         id="path30"
         style="fill:#231f20;fill-opacity:1;fill-rule:nonzero;stroke:none"
         d="M 737.535,66.0547 V 3.92578 h 30.86 V 56.3281 c 0,9.9024 0.214,20.4688 5.156,26.8164 h -39.824 c 3.66,-5.0586 3.808,-12.2851 3.808,-17.0898" /><path
         id="path32"
         style="fill:#231f20;fill-opacity:1;fill-rule:nonzero;stroke:none"
         d="M 0.203125,785.801 V 636.309 H 93.4727 v 25.449 H 32.9141 V 785.801 H 0.203125" /><path
         id="path34"
         style="fill:#231f20;fill-opacity:1;fill-rule:nonzero;stroke:none"
         d="m 137.094,668.594 c 0,12.422 14.082,18.652 33.75,16.992 0,-8.106 -0.242,-14.551 -2.41,-20.02 h 31.601 l -0.195,39.258 c 0,4.785 -0.215,17.188 -7.246,25.684 -10.352,12.012 -28.574,13.457 -37.278,13.457 -9.929,0 -22.148,-1.66 -31.679,-8.477 -10.965,-7.871 -11.59,-19.062 -11.805,-24.629 h 30.039 c 0,2.461 0,5.782 2.266,9.297 2.676,3.946 7.246,5.801 11.609,5.801 2.891,0 10.949,-1.035 13.652,-8.691 1.243,-3.731 1.446,-7.051 1.446,-13.868 -10.145,0 -28.563,0 -41.406,-5.8 -18.915,-8.75 -22.032,-23.653 -22.137,-32.032 h 30.117 c -0.195,1.016 -0.324,2.032 -0.324,3.028" /><path
         id="path36"
         style="fill:#231f20;fill-opacity:1;fill-rule:nonzero;stroke:none"
         d="m 257.672,697.598 c 0,8.066 1.855,13.242 3.719,15.937 3.312,4.961 9.328,8.067 15.949,8.067 7.871,0 12.637,-4.336 14.902,-8.907 1.66,-3.3 1.66,-7.031 1.66,-11.386 v -35.743 h 31.27 v 27.266 c 0,19.453 -0.625,24.844 -2.891,31.27 -2.695,7.226 -11.398,19.668 -31.894,19.668 -22.785,0 -31.067,-13.477 -33.965,-18.223 l -0.832,15.723 h -29.402 c 0.632,-7.247 0.632,-18.633 0.632,-19.043 v -56.661 h 30.852 v 32.032" /><path
         id="path38"
         style="fill:#231f20;fill-opacity:1;fill-rule:nonzero;stroke:none"
         d="m 377.75,687.031 c 0,10.567 2.285,35.196 22.781,35.196 13.86,0 22.766,-11.192 22.766,-31.68 0,-5.176 -0.41,-15.938 -4.961,-24.629 -0.059,-0.117 -0.156,-0.234 -0.215,-0.352 h 35 v 120.235 h -30.859 v -57.774 c -2.696,3.731 -10.567,14.278 -29.395,14.278 -27.336,0 -46.172,-21.524 -46.172,-56.094 0,-7.676 0.938,-14.531 2.676,-20.645 h 32.52 c -2.832,5.879 -4.141,13.438 -4.141,21.465" /><path
         id="path40"
         style="fill:#231f20;fill-opacity:1;fill-rule:nonzero;stroke:none"
         d="m 504.664,680.82 h 70.184 c 0.41,8.692 0.84,24.004 -6.211,38.301 -9.52,19.453 -27.332,25.254 -42.235,25.254 -11.386,0 -21.328,-3.301 -29.406,-8.691 -17.598,-12.207 -21.738,-32.5 -21.738,-49.493 0,-7.461 0.84,-14.355 2.539,-20.625 h 29.035 c -2.148,5.801 -2.168,12.071 -2.168,15.254 m 20.703,42.657 c 17.813,0 18.223,-18.653 18.223,-23.399 h -37.891 c 0.625,12.207 6.211,23.399 19.668,23.399" /><path
         id="path42"
         style="fill:#231f20;fill-opacity:1;fill-rule:nonzero;stroke:none"
         d="m 681.09,669.219 c 0,14.297 -8.899,24.023 -27.93,29.199 l -18.859,5.176 c -9.11,2.48 -14.285,3.926 -14.285,10.976 0,6.407 6.211,10.352 14.492,10.352 4.754,0 14.082,-0.84 14.922,-12.422 h 27.949 c -0.84,20.918 -18.234,30.859 -39.758,30.859 -27.129,0 -45.769,-12.441 -45.769,-32.714 0,-21.329 18.027,-26.504 26.511,-29.004 l 19.055,-5.176 c 11.23,-3.086 14.102,-6.582 14.434,-10.899 h 28.847 c 0.145,1.211 0.391,2.422 0.391,3.653" /><path
         id="path44"
         style="fill:#231f20;fill-opacity:1;fill-rule:nonzero;stroke:none"
         d="m 0,817.051 v 149.512 h 56.1094 c 26.7187,1.64 54.0506,-9.532 54.0506,-38.731 0,-16.367 -11.3944,-27.754 -26.3162,-32.715 v -0.41 c 18.8552,-3.945 32.9372,-16.973 32.9372,-38.926 0,-29.609 -37.2732,-40.371 -60.2537,-38.73 z m 57.1484,89.453 c 13.4532,0 20.9141,5.586 20.9141,17.598 0,12.011 -7.4609,17.597 -20.9141,17.597 H 32.0781 v -35.195 z m 0,-64.59 c 15.1133,0 25.4649,2.676 25.4649,19.863 0,17.188 -10.3516,19.883 -25.4649,19.883 H 32.0781 v -39.746 h 25.0703" /><path
         id="path46"
         style="fill:#231f20;fill-opacity:1;fill-rule:nonzero;stroke:none"
         d="m 137.164,891.582 c 0.215,13.066 5.801,21.133 14.082,25.898 8.484,4.961 19.453,6.622 30.645,6.622 20.898,0 44.297,-7.657 44.297,-38.926 v -56.738 c 0.214,-5.176 1.035,-8.282 1.453,-11.387 h -27.957 c -0.606,4.765 -1.036,9.531 -1.036,13.887 h -0.39 c -7.051,-12.032 -17.813,-16.993 -31.906,-16.993 -19.461,0 -33.954,11.192 -33.954,31.485 0,7.246 3.321,24.843 22.168,32.91 12.422,5.39 28.145,6.015 40.567,5.586 v 9.746 c 0,4.355 -3.301,12.832 -14.278,12.832 -10.773,0 -14.296,-10.137 -13.867,-14.922 z m 25.047,-42.012 c 0,-8.691 6.418,-14.902 15.129,-14.902 17.187,0 17.793,19.043 17.793,31.25 -10.762,0.195 -32.922,0.41 -32.922,-16.348" /><path
         id="path48"
         style="fill:#231f20;fill-opacity:1;fill-rule:nonzero;stroke:none"
         d="m 323.559,966.543 h 31.066 V 837.754 c 0,-6.816 0.613,-13.867 1.035,-20.703 h -31.055 c -0.429,4.98 -0.839,9.746 -0.839,14.707 h -0.411 c -6.835,-12.227 -18.417,-17.813 -31.886,-17.813 -30.438,0 -44.715,28.36 -44.715,55.078 0,27.95 16.355,55.079 48.652,55.079 10.762,0 21.942,-6.407 27.735,-15.118 h 0.418 z M 301.207,834.668 c 16.758,0 22.352,20.078 22.352,34.355 0,14.297 -5.594,34.375 -22.352,34.375 -19.883,0 -22.363,-18.437 -22.363,-34.375 0,-15.937 2.48,-34.355 22.363,-34.355" /><path
         id="path50"
         style="fill:#231f20;fill-opacity:1;fill-rule:nonzero;stroke:none"
         d="m 378.949,939.824 h 33.137 v 26.719 h -33.137 z m 1.047,-122.754 h 31.055 V 920.996 H 379.996 V 817.07" /><path
         id="path52"
         style="fill:#231f20;fill-opacity:1;fill-rule:nonzero;stroke:none"
         d="m 491.273,893.242 c -0.418,7.051 -7.039,10.156 -14.082,10.156 -8.484,0 -12.41,-2.48 -12.41,-9.316 0,-16.367 59.414,-7.031 59.414,-45.977 0,-22.773 -27.734,-34.16 -47.004,-34.16 -24.218,0 -45.339,9.532 -45.75,33.34 h 28.77 c 0.625,-8.066 7.871,-12.617 16.98,-12.617 8.489,0 14.914,3.516 14.914,11.582 0,8.281 -14.914,11.797 -21.113,13.242 -19.883,4.766 -38.32,9.121 -38.32,33.34 0,21.758 26.289,31.27 44.519,31.27 21.954,0 40.579,-7.872 42.032,-30.86 h -27.95" /><path
         id="path54"
         style="fill:#231f20;fill-opacity:1;fill-rule:nonzero;stroke:none"
         d="m 599.047,884.551 c -0.203,8.496 -3.719,18.847 -15.731,18.847 -13.261,0 -13.457,-24.843 -13.878,-32.91 0.832,-9.531 1.046,-35.82 14.289,-35.82 12.011,0 15.527,11.797 15.742,20.273 h 30.234 c -1.035,-26.484 -17.402,-40.996 -45.976,-40.996 -30.84,0 -46.379,27.539 -46.379,55.078 0,27.54 15.539,55.079 46.379,55.079 26.503,0 46.171,-15.118 45.976,-39.551 h -30.656" /><path
         id="path56"
         style="fill:#231f20;fill-opacity:1;fill-rule:nonzero;stroke:none"
         d="m 649.957,817.051 v 149.512 h 30.84 V 908.77 l 0.41,-0.411 c 6.434,9.532 16.172,15.743 31.895,15.743 10.351,0 30.437,-7.657 34.168,-22.774 1.652,-6.406 2.07,-13.047 2.07,-16.562 v -67.715 h -31.063 v 62.539 c -0.207,11.172 -3.32,23.808 -18.632,23.808 -9.727,0 -18.223,-8.691 -18.633,-23.808 v -62.539 h -31.055" /><path
         id="path58"
         style="fill:#231f20;fill-opacity:1;fill-rule:nonzero;stroke:none"
         d="m 799.059,860.742 c 0,-13.457 1.863,-26.094 17.812,-26.094 10.762,0 16.141,3.946 19.043,13.477 h 27.949 c -2.695,-25.684 -22.773,-34.18 -46.992,-34.18 -35.625,0 -49.902,20.098 -49.902,54.864 0,31.269 18.222,55.293 49.902,55.293 19.453,0 35.606,-6.622 44.297,-24.844 2.91,-5.801 4.355,-12.012 5.176,-18.633 0.84,-6.426 0.84,-13.047 0.84,-19.883 z m 36.035,20.723 c 0,11.367 -3.106,21.933 -18.223,21.933 -14.289,0 -17.383,-10.566 -17.812,-21.933 h 36.035" /><path
         id="path60"
         style="fill:#231f20;fill-opacity:1;fill-rule:nonzero;stroke:none"
         d="m 941.129,893.242 c -0.43,7.051 -7.051,10.156 -14.082,10.156 -8.496,0 -12.422,-2.48 -12.422,-9.316 0,-16.367 59.414,-7.031 59.414,-45.977 0,-22.773 -27.734,-34.16 -46.992,-34.16 -24.219,0 -45.352,9.532 -45.762,33.34 h 28.789 c 0.606,-8.066 7.852,-12.617 16.973,-12.617 8.476,0 14.902,3.516 14.902,11.582 0,8.281 -14.902,11.797 -21.113,13.242 -19.883,4.766 -38.301,9.121 -38.301,33.34 0,21.758 26.289,31.27 44.512,31.27 21.953,0 40.566,-7.872 42.031,-30.86 h -27.949" /><path
         id="path62"
         style="fill:#ed1c24;fill-opacity:1;fill-rule:nonzero;stroke:none"
         d="m 191.02,490.293 93.421,14.043 2.704,-2.695 -30.782,-100.989 h 1.621 c 34.559,63.188 80.457,104.219 127.442,104.219 35.637,0 45.898,-28.609 30.238,-76.68 l -8.637,-28.074 h 1.618 c 36.722,65.344 81.543,104.754 127.441,104.754 42.121,0 49.144,-35.098 37.269,-74.519 L 533.926,298.594 c -4.863,-15.664 -6.477,-27 3.777,-27 14.051,0 37.809,35.094 46.988,52.918 l 12.422,-8.633 c -17.285,-38.887 -45.359,-72.91 -83.707,-72.91 -25.922,0 -36.179,19.441 -27,51.308 l 43.203,146.875 c 6.477,22.149 0,35.11 -16.75,35.11 -41.574,0 -85.316,-71.282 -104.214,-115.032 -13.5,-30.234 -23.219,-60.476 -38.34,-111.777 l -45.364,-5.937 c 16.204,61.015 35.102,130.683 50.762,191.699 8.645,30.246 0.543,41.047 -14.582,41.047 -41.039,0 -88.019,-75.071 -105.84,-118.813 -10.801,-26.988 -21.058,-56.16 -35.636,-107.996 l -45.907,-5.937 52.383,207.363 c 4.317,16.199 5.402,23.223 -7.019,24.297 l -30.782,2.16 2.7,12.957" /><path
         id="path64"
         style="fill:#ed1c24;fill-opacity:1;fill-rule:nonzero;stroke:none"
         d="M 889.254,504.336 835.25,298.059 c -4.316,-15.664 -5.402,-27.004 4.863,-27.004 13.496,0 37.801,34.558 48.055,53.457 l 12.422,-8.633 c -17.82,-37.805 -48.602,-72.91 -85.86,-72.91 -27,0 -33.476,21.601 -23.757,56.164 l 15.117,52.918 h -1.074 c -30.782,-58.86 -81.543,-109.082 -130.684,-109.082 -40.508,0 -44.824,34.023 -34.023,74.519 l 34.558,133.391 c 4.317,15.652 4.863,23.223 -7.558,24.297 l -30.782,2.16 2.696,12.957 93.429,14.043 2.696,-2.156 -48.594,-186.848 c -7.57,-29.16 -3.789,-43.203 11.875,-43.203 39.422,0 85.32,68.586 107.461,119.883 12.422,29.707 21.601,54.004 36.719,106.386 l 46.445,5.938" /><path
         id="path66"
         style="fill:#ed1c24;fill-opacity:1;fill-rule:nonzero;stroke:none"
         d="m 1098.24,463.301 c 0,-14.578 -13.51,-22.149 -22.69,-22.149 -7.56,0 -11.87,3.782 -14.04,10.266 -9.72,22.684 -22.68,34.559 -39.96,34.559 -18.9,0 -30.784,-14.043 -30.784,-33.477 0,-17.285 4.328,-29.707 35.104,-55.09 35.64,-29.156 48.6,-44.812 48.6,-75.594 0,-39.421 -35.64,-78.847 -92.884,-78.847 -52.371,0 -72.898,30.781 -72.898,49.687 0,11.875 10.261,25.918 25.925,25.918 8.633,0 12.414,-4.863 15.657,-14.582 8.105,-26.465 28.621,-41.043 47.519,-41.043 19.441,0 34.561,12.969 34.561,36.184 0,16.746 -9.18,35.64 -36.182,58.863 -24.836,22.141 -44.816,38.879 -44.816,69.121 0,43.196 31.855,77.754 85.858,77.754 45.36,0 61.03,-27.535 61.03,-41.57" /><path
         id="path68"
         style="fill:#ed1c24;fill-opacity:1;fill-rule:nonzero;stroke:none"
         d="m 1285.05,456.816 c 0,17.286 -9.71,30.247 -27.54,30.247 -39.96,0 -76.13,-51.309 -84.77,-112.329 65.34,9.184 112.31,33.481 112.31,82.082 z m 30.25,-139.863 c -35.1,-56.699 -81,-73.984 -121.51,-73.984 -31.85,0 -75.05,12.969 -75.05,83.703 0,42.664 15.66,89.098 42.11,122.051 28.09,34.558 63.73,56.148 109.62,56.148 42.13,0 60.49,-24.297 60.49,-51.836 0,-69.656 -107.46,-89.637 -159.84,-95.586 -0.54,-3.777 -1.09,-16.199 -1.09,-18.894 0,-39.422 10.8,-69.66 45.9,-69.66 38.35,0 67.51,31.32 86.95,58.324 l 12.42,-10.266" /><path
         id="path70"
         style="fill:#ed1c24;fill-opacity:1;fill-rule:nonzero;stroke:none"
         d="m 1614.45,504.336 -54.01,-206.277 c -4.31,-15.664 -5.4,-27.004 4.87,-27.004 13.49,0 37.8,34.558 48.05,53.457 l 12.43,-8.633 c -17.83,-37.805 -48.61,-72.91 -85.86,-72.91 -27.01,0 -33.48,21.601 -23.76,56.164 l 15.11,52.918 h -1.07 c -30.78,-58.86 -81.54,-109.082 -130.68,-109.082 -40.51,0 -44.83,34.023 -34.03,74.519 l 34.56,133.391 c 4.32,15.652 4.87,23.223 -7.56,24.297 l -30.78,2.16 2.7,12.957 93.43,14.043 2.69,-2.156 -48.59,-186.848 c -7.57,-29.16 -3.79,-43.203 11.87,-43.203 39.43,0 85.33,68.586 107.46,119.883 12.43,29.707 21.61,54.004 36.72,106.386 l 46.45,5.938" /><path
         id="path72"
         style="fill:#ed1c24;fill-opacity:1;fill-rule:nonzero;stroke:none"
         d="m 1668.44,490.293 93.42,14.043 2.71,-2.695 -30.79,-100.989 h 1.63 c 34.56,63.188 80.45,104.219 127.44,104.219 35.64,0 45.9,-28.609 30.24,-76.68 l -8.64,-28.074 h 1.62 c 36.72,65.344 81.54,104.754 127.44,104.754 42.12,0 49.14,-35.098 37.26,-74.519 l -39.42,-131.758 c -4.86,-15.664 -6.48,-27 3.78,-27 14.04,0 37.79,35.094 46.97,52.918 l 12.43,-8.633 c -17.28,-38.887 -45.36,-72.91 -83.7,-72.91 -25.92,0 -36.19,19.441 -27.01,51.308 l 43.21,146.875 c 6.48,22.149 0,35.11 -16.74,35.11 -41.58,0 -85.32,-71.282 -104.22,-115.032 -13.51,-30.234 -23.22,-60.476 -38.34,-111.777 l -45.36,-5.937 c 16.2,61.015 35.1,130.683 50.76,191.699 8.63,30.246 0.54,41.047 -14.58,41.047 -41.05,0 -88.03,-75.071 -105.85,-118.813 -10.8,-26.988 -21.05,-56.16 -35.63,-107.996 l -45.9,-5.937 52.37,207.363 c 4.33,16.199 5.4,23.223 -7.02,24.297 l -30.77,2.16 2.69,12.957" /><path
         id="path74"
         style="fill:#ed1c24;fill-opacity:1;fill-rule:nonzero;stroke:none"
         d="m 2223.55,478.953 88.02,25.383 3.24,-2.156 22.69,-89.641 h 1.07 c 41.04,64.797 66.43,92.332 96.12,92.332 14.05,0 23.76,-7.558 23.76,-19.976 0,-13.5 -16.2,-28.618 -23.22,-28.618 -5.94,0 -6.48,1.075 -10.8,3.782 -5.4,3.781 -11.88,5.402 -16.2,5.402 -12.96,0 -41.04,-34.563 -65.34,-74.523 5.94,-24.844 15.12,-60.477 21.06,-80.461 7.02,-24.305 12.96,-37.262 21.6,-37.262 13.5,0 27,17.82 41.05,47.515 l 14.03,-8.093 c -15.65,-36.719 -39.41,-69.668 -75.6,-69.668 -22.14,0 -32.4,13.508 -41.58,48.601 -4.32,17.285 -8.64,34.028 -12.96,50.227 h -1.08 c -31.86,-51.848 -54,-98.828 -93.42,-98.828 -20.53,0 -32.4,11.347 -32.4,25.926 0,11.339 11.87,28.078 23.22,28.078 3.23,0 6.48,-1.075 9.72,-3.243 7.56,-5.937 15.66,-10.8 21.06,-10.8 18.9,0 50.22,51.843 67.5,83.164 l -23.22,85.324 c -4.86,17.281 -9.18,18.355 -19.98,17.281 l -37.27,-2.168 -1.07,12.422" /></g></g></svg>